<svg width="1440" height="1024" viewBox="0 0 1440 1024" fill="none" xmlns="http://www.w3.org/2000/svg">
<g clip-path="url(#clip0_13_1086)">
<mask id="mask0_13_1086" style="mask-type:luminance" maskUnits="userSpaceOnUse" x="-97" y="-1" width="1634" height="1026">
<path d="M1536.48 -0.999023H-96.4784V1025H1536.48V-0.999023Z" fill="white"/>
</mask>
<g mask="url(#mask0_13_1086)">
<path d="M-134.278 -19.3589H1574.28V1044.44H-134.278V-19.3589Z" fill="white"/>
<path d="M2022.86 934.108C2022.86 1060.45 1888.13 1065.37 1777.43 1175.84C1666.72 1286.32 1660.68 1460.86 1496.1 1460.86C1205.18 1460.86 969.346 1225.03 969.346 934.108C969.346 643.19 1205.18 407.354 1496.1 407.354C1787.02 407.354 2022.86 643.19 2022.86 934.108Z" fill="#C8BCF6" fill-opacity="0.25"/>
<path d="M1933.65 854.936C1933.65 923.37 1880.87 1021.2 1728.86 1067.12C1633.71 1095.86 1576.33 1203.29 1496.1 1203.29C1347.44 1203.29 1226.92 1082.77 1226.92 934.108C1226.92 785.443 1347.44 664.926 1496.1 664.926C1644.77 664.926 1933.65 706.271 1933.65 854.936Z" fill="#C8BCF6" fill-opacity="0.25"/>
<path d="M1793.26 914.051C1731.88 968.915 1634.91 914.051 1586.73 956.229C1518.94 1024.01 1517.3 1097.73 1455.69 1097.73C1347.76 1097.73 1374.58 894.095 1455.69 825.2C1567.36 730.374 1894.88 823.2 1793.26 914.051Z" fill="white" fill-opacity="0.05"/>
<path d="M473.847 -102.973C473.847 23.3663 339.12 28.2944 228.416 138.764C117.712 249.233 111.673 423.781 -52.9056 423.781C-343.823 423.781 -579.659 187.945 -579.659 -102.973C-579.659 -393.89 -343.823 -629.725 -52.9056 -629.725C238.012 -629.725 473.847 -393.89 473.847 -102.973Z" fill="#C8BCF6" fill-opacity="0.45"/>
<path d="M384.648 -182.144C384.648 -113.71 331.867 -15.8841 179.859 30.0353C84.7075 58.7789 27.325 166.21 -52.9054 166.21C-201.571 166.21 -322.088 45.6928 -322.088 -102.973C-322.088 -251.638 -201.571 -372.155 -52.9054 -372.155C95.7602 -372.155 384.648 -330.809 384.648 -182.144Z" fill="white" fill-opacity="0.05"/>
<path d="M244.251 -123.029C182.88 -68.1652 85.9083 -123.029 37.7242 -80.8505C-30.0613 -13.0651 -31.7054 60.6487 -93.305 60.6487C-201.245 60.6487 -174.426 -142.985 -93.3052 -211.879C18.3491 -306.706 345.877 -213.878 244.251 -123.029Z" fill="white" fill-opacity="0.05"/>
</g>
</g>
<defs>
<clipPath id="clip0_13_1086">
<rect width="1632.96" height="1026" fill="white" transform="translate(-96.4784 -0.999023)"/>
</clipPath>
</defs>
</svg>
