<svg width="28" height="28" viewBox="0 0 28 28" fill="none" xmlns="http://www.w3.org/2000/svg">
<g id="game-icons:level-four" clip-path="url(#clip0_87_546)">
<path id="Vector" d="M0.875 0.875C3.5 6.125 2.1875 7.4375 4.8125 10.0625C4.8125 10.0625 7.266 10.0625 8.61492 8.87644C7.30281 10.2592 6.57283 12.0938 6.57617 14C6.60516 15.9498 7.40006 17.8099 8.78915 19.1785C10.1782 20.5471 12.05 21.3143 14 21.3143C15.95 21.3143 17.8218 20.5471 19.2109 19.1785C20.5999 17.8099 21.3948 15.9498 21.4238 14C21.4296 12.1153 20.7185 10.2989 19.4346 8.9192C20.7933 10.0623 23.1875 10.0625 23.1875 10.0625C25.8125 7.4375 24.5 6.125 27.125 0.875C21.875 3.5 20.5625 2.1875 17.9375 4.8125C17.9375 4.8125 17.9377 7.25156 19.1133 8.60306C17.7367 7.29437 15.9108 6.56304 14.0114 6.55954C12.112 6.55604 10.2835 7.28063 8.90203 8.58424C10.0618 7.22914 10.0625 4.8125 10.0625 4.8125C7.4375 2.1875 6.125 3.5 0.875 0.875ZM4.8125 17.9375C2.1875 20.5625 3.5 21.875 0.875 27.125C6.125 24.5 7.4375 25.8125 10.0625 23.1875C10.0625 23.1875 10.0625 20.5625 8.75 19.25C7.4375 17.9375 4.8125 17.9375 4.8125 17.9375ZM23.1875 17.9375C23.1875 17.9375 20.5625 17.9375 19.25 19.25C17.9375 20.5625 17.9375 23.1875 17.9375 23.1875C20.5625 25.8125 21.875 24.5 27.125 27.125C24.5 21.875 25.8125 20.5625 23.1875 17.9375Z" fill="#A993FF"/>
</g>
<defs>
<clipPath id="clip0_87_546">
<rect width="28" height="28" fill="white"/>
</clipPath>
</defs>
</svg>
