<svg width="37" height="37" viewBox="0 0 37 37" fill="none" xmlns="http://www.w3.org/2000/svg">
<g id="mdi:water-opacity">
<path id="Vector" d="M24.6667 21.5832V18.4998H27.1488C27.5188 19.5944 27.75 20.6428 27.75 21.5832H24.6667ZM24.0192 12.3332C23.31 11.2386 22.5854 10.1903 21.8917 9.24984H21.5833V12.3332H24.0192ZM24.6667 18.4998V15.4165H21.5833V18.4998H24.6667ZM24.6667 13.3815V15.4165H25.8075C25.4375 14.7382 25.0675 14.0444 24.6667 13.3815ZM18.5 24.6665V21.5832H21.5833V18.4998H18.5V15.4165H21.5833V12.3332H18.5V9.24984H21.5833V8.83359C19.8875 6.56734 18.5 5.01025 18.5 5.01025C18.5 5.01025 9.25 15.4165 9.25 21.5832C9.25 26.6861 13.3971 30.8332 18.5 30.8332V27.7498H21.5833V24.6665H18.5ZM21.5833 30.2936C22.7396 29.8928 23.7725 29.2915 24.6667 28.459V27.7498H21.5833V30.2936ZM21.5833 24.6665H24.6667V21.5832H21.5833V24.6665ZM24.6667 27.7498H25.3758C26.2083 26.8557 26.8096 25.8228 27.2104 24.6665H24.6667V27.7498Z" fill="#A993FF"/>
</g>
</svg>
