<svg width="37" height="37" viewBox="0 0 37 37" fill="none" xmlns="http://www.w3.org/2000/svg">
<g id="mdi:restart">
<path id="Vector" d="M18.5 6.16696C21.7375 6.16696 24.8208 7.40029 27.1333 9.71279C31.9125 14.492 31.9125 22.3545 27.1333 27.1336C24.3583 30.0628 20.5042 31.142 16.8042 30.6795L17.575 27.5961C20.1958 27.9045 22.9708 26.9795 24.975 24.9753C28.5208 21.4295 28.5208 15.5711 24.975 11.8711C23.2792 10.1753 20.8125 9.25029 18.5 9.25029V16.342L10.7917 8.63363L18.5 0.925293V6.16696ZM9.71249 27.1336C5.70416 23.1253 5.08749 16.9586 7.86249 12.1795L10.175 14.492C8.47916 17.8836 9.09583 22.2003 12.025 24.9753C12.7958 25.7461 13.7208 26.3628 14.8 26.8253L13.875 29.9086C12.3333 29.292 10.9458 28.367 9.71249 27.1336Z" fill="#A993FF"/>
</g>
</svg>
