<svg width="37" height="37" viewBox="0 0 37 37" fill="none" xmlns="http://www.w3.org/2000/svg">
<g id="tabler:zoom-in-filled" clip-path="url(#clip0_87_536)">
<g id="Group">
<path id="Vector" d="M21.5833 4.73592C23.0517 5.58376 24.3295 6.72527 25.337 8.08915C26.3444 9.45304 27.0597 11.01 27.4383 12.6628C27.8169 14.3156 27.8507 16.0287 27.5375 17.6951C27.2242 19.3615 26.5708 20.9454 25.6179 22.3479L33.2399 29.9684C33.6642 30.3865 33.9108 30.9523 33.9283 31.5478C33.9457 32.1433 33.7326 32.7226 33.3335 33.1649C32.9344 33.6071 32.3799 33.8783 31.7858 33.9219C31.1916 33.9654 30.6036 33.778 30.1442 33.3986L29.9685 33.2398L22.348 25.6178C20.5248 26.8562 18.4031 27.5834 16.2035 27.7238C14.004 27.8642 11.807 27.4126 9.84119 26.416C7.87537 25.4193 6.21253 23.9142 5.02567 22.057C3.8388 20.1998 3.17129 18.0586 3.09258 15.856L3.08333 15.4166L3.09104 14.9772C3.16688 12.8509 3.79152 10.7803 4.90426 8.96677C6.017 7.15324 7.57998 5.65841 9.4413 4.62759C11.3026 3.59677 13.399 3.065 15.5266 3.08399C17.6542 3.10297 19.7407 3.67205 21.5833 4.73592ZM15.4167 9.24992C15.0391 9.24997 14.6746 9.38861 14.3924 9.63953C14.1102 9.89045 13.93 10.2362 13.8858 10.6112L13.875 10.7916V13.8749H10.7917L10.6113 13.8857C10.2366 13.9303 9.89124 14.1107 9.64067 14.3929C9.3901 14.675 9.25171 15.0392 9.25171 15.4166C9.25171 15.7939 9.3901 16.1582 9.64067 16.4403C9.89124 16.7225 10.2366 16.9029 10.6113 16.9475L10.7917 16.9583H13.875V20.0416L13.8858 20.222C13.9304 20.5967 14.1108 20.942 14.3929 21.1926C14.6751 21.4431 15.0393 21.5815 15.4167 21.5815C15.794 21.5815 16.1582 21.4431 16.4404 21.1926C16.7225 20.942 16.903 20.5967 16.9475 20.222L16.9583 20.0416V16.9583H20.0417L20.222 16.9475C20.5967 16.9029 20.9421 16.7225 21.1926 16.4403C21.4432 16.1582 21.5816 15.7939 21.5816 15.4166C21.5816 15.0392 21.4432 14.675 21.1926 14.3929C20.9421 14.1107 20.5967 13.9303 20.222 13.8857L20.0417 13.8749H16.9583V10.7916L16.9475 10.6112C16.9034 10.2362 16.7231 9.89045 16.4409 9.63953C16.1587 9.38861 15.7943 9.24997 15.4167 9.24992Z" fill="#A993FF"/>
</g>
</g>
<defs>
<clipPath id="clip0_87_536">
<rect width="37" height="37" fill="white"/>
</clipPath>
</defs>
</svg>
